<?xml version="1.0" encoding="UTF-8" standalone="no" ?>
<!DOCTYPE svg PUBLIC "-//W3C//DTD SVG 1.1//EN" "http://www.w3.org/Graphics/SVG/1.1/DTD/svg11.dtd">
<svg xmlns="http://www.w3.org/2000/svg" xmlns:xlink="http://www.w3.org/1999/xlink" version="1.1" width="1080" height="1080" viewBox="0 0 1080 1080" xml:space="preserve">
<desc>Created with Fabric.js 5.2.4</desc>
<defs>
</defs>
<g transform="matrix(1 0 0 1 540 540)" id="5cd062af-1f07-4e63-9b25-7deefe63e088"  >
<rect style="stroke: none; stroke-width: 1; stroke-dasharray: none; stroke-linecap: butt; stroke-dashoffset: 0; stroke-linejoin: miter; stroke-miterlimit: 4; fill: rgb(255,255,255); fill-rule: nonzero; opacity: 1; visibility: hidden;" vector-effect="non-scaling-stroke"  x="-540" y="-540" rx="0" ry="0" width="1080" height="1080" />
</g>
<g transform="matrix(1 0 0 1 540 540)" id="74a55a6b-2b2c-4108-8ed8-dccc1f11eeef"  >
</g>
<g transform="matrix(13.6 0 0 13.6 540 540)" id="1aa29bfe-1184-4817-9346-660ffd667e61"  >
<circle style="stroke: rgb(0,0,0); stroke-width: 0; stroke-dasharray: none; stroke-linecap: butt; stroke-dashoffset: 0; stroke-linejoin: miter; stroke-miterlimit: 4; fill: rgb(255,255,255); fill-rule: nonzero; opacity: 1;" vector-effect="non-scaling-stroke"  cx="0" cy="0" r="35" />
</g>
<g transform="matrix(0.65 0 0 0.65 543.17 544.42)"  >
<g style="" vector-effect="non-scaling-stroke"   >
		<g transform="matrix(4.25 0 0 4.25 0.42 0.42)"  >
<path style="stroke: none; stroke-width: 1; stroke-dasharray: none; stroke-linecap: butt; stroke-dashoffset: 0; stroke-linejoin: miter; stroke-miterlimit: 4; fill: rgb(1,60,88); fill-rule: nonzero; opacity: 1;" vector-effect="non-scaling-stroke"  transform=" translate(-256.2, -255.9)" d="M 255.748 63.2242 C 304.255 60.8747 355.691 84.1917 390.043 117.601 C 466.372 191.833 469.141 313.203 394.449 389.68 C 357.307 427.71 310.454 448.081 257.212 448.723 C 200.115 449.553 144.223 422.025 108.03 378.255 C 44.2588 301.131 49.2638 188.669 121.21 118.374 C 156.89 83.5123 205.624 62.6103 255.748 63.2242 Z M 147.852 159.658 L 221.382 249.824 C 238.875 271.573 255.903 293.666 273.161 315.598 C 274.529 312.317 275.598 308.908 277.25 305.756 L 288.088 305.756 C 286.496 311.293 283.358 316.366 281.431 321.806 C 285.141 325.603 288.701 329.899 292.746 333.32 C 292.821 339.453 292.759 345.594 292.746 351.728 L 303.282 351.728 C 303.28 348.685 303.201 345.622 303.282 342.582 C 314.882 352.186 324.852 364.778 334.021 376.658 C 342.491 369.397 351.955 363.731 359.385 355.15 C 362.1 352.014 361.986 351.696 358.789 351.155 L 358.789 305.756 C 362.251 305.537 365.774 305.736 369.245 305.742 L 389.994 305.756 L 390.08 307.439 L 390.482 307.786 L 390.969 307.505 C 394.872 301.777 399.203 280.517 400.04 272.993 C 403.285 243.849 397.251 214.17 383.617 188.271 C 381.781 184.784 376.321 172.26 372.035 171.848 C 375.054 165.925 377.927 159.935 380.989 154.031 L 358.789 154.031 C 357.601 152.058 353.386 148.872 351.552 147.223 C 290.743 92.5661 202.191 102.054 147.852 159.658 Z" stroke-linecap="round" />
</g>
		<g transform="matrix(4.25 0 0 4.25 92.11 -60.72)"  >
<path style="stroke: none; stroke-width: 1; stroke-dasharray: none; stroke-linecap: butt; stroke-dashoffset: 0; stroke-linejoin: miter; stroke-miterlimit: 4; fill: rgb(255,186,66); fill-rule: nonzero; opacity: 1;" vector-effect="non-scaling-stroke"  transform=" translate(-277.81, -241.53)" d="M 133.339 142.734 C 136.679 138.62 141.017 135.01 144.94 131.443 C 231.518 52.6972 372.842 87.8467 412.711 200.229 C 431.76 253.925 422.205 314.645 385.774 359.042 C 375.883 371.096 360.798 385.857 347.66 394.107 L 334.021 376.658 C 342.491 369.397 351.955 363.731 359.385 355.15 C 362.1 352.014 361.986 351.696 358.789 351.155 L 358.789 305.756 C 362.251 305.537 365.774 305.736 369.245 305.742 L 389.994 305.756 L 390.08 307.439 L 390.482 307.786 L 390.969 307.505 C 394.872 301.777 399.203 280.517 400.04 272.993 C 403.285 243.849 397.251 214.17 383.617 188.271 C 381.781 184.784 376.321 172.26 372.035 171.848 C 375.054 165.925 377.927 159.935 380.989 154.031 L 358.789 154.031 C 357.601 152.058 353.386 148.872 351.552 147.223 C 290.743 92.5661 202.191 102.054 147.852 159.658 C 142.969 154.129 138.632 147.851 133.339 142.734 Z" stroke-linecap="round" />
</g>
		<g transform="matrix(4.25 0 0 4.25 502.07 308.55)"  >
<path style="stroke: none; stroke-width: 1; stroke-dasharray: none; stroke-linecap: butt; stroke-dashoffset: 0; stroke-linejoin: miter; stroke-miterlimit: 4; fill: rgb(254,254,254); fill-rule: nonzero; opacity: 1;" vector-effect="non-scaling-stroke"  transform=" translate(-374.39, -328.53)" d="M 358.789 305.756 C 362.251 305.537 365.774 305.736 369.245 305.742 L 389.994 305.756 C 389.462 308.713 389.521 311.345 389.994 314.305 C 384.821 314.289 379.633 314.185 374.462 314.305 L 374.746 314.33 C 376.535 314.469 387.245 314.083 387.866 314.62 C 387.311 318.113 384.261 320.827 383.542 324.266 C 385.365 324.28 387.187 324.285 389.01 324.266 L 389.01 332.461 L 369.263 332.461 L 369.263 342.582 C 376.171 342.475 383.085 342.584 389.994 342.582 L 389.994 351.155 C 379.689 351.789 369.133 350.965 358.789 351.155 L 358.789 305.756 Z" stroke-linecap="round" />
</g>
		<g transform="matrix(4.25 0 0 4.25 519.78 269.23)"  >
<path style="stroke: none; stroke-width: 1; stroke-dasharray: none; stroke-linecap: butt; stroke-dashoffset: 0; stroke-linejoin: miter; stroke-miterlimit: 4; fill: rgb(245,162,1); fill-rule: nonzero; opacity: 1;" vector-effect="non-scaling-stroke"  transform=" translate(-378.56, -319.28)" d="M 369.263 314.305 C 370.996 314.278 372.73 314.299 374.462 314.305 L 374.746 314.33 C 376.535 314.469 387.245 314.083 387.866 314.62 C 387.311 318.113 384.261 320.827 383.542 324.266 L 369.263 324.266 C 369.234 320.955 369.523 317.605 369.263 314.305 Z" stroke-linecap="round" />
</g>
		<g transform="matrix(4.25 0 0 4.25 -159.71 114.5)"  >
<path style="stroke: none; stroke-width: 1; stroke-dasharray: none; stroke-linecap: butt; stroke-dashoffset: 0; stroke-linejoin: miter; stroke-miterlimit: 4; fill: rgb(49,142,174); fill-rule: nonzero; opacity: 1;" vector-effect="non-scaling-stroke"  transform=" translate(-218.54, -282.78)" d="M 347.66 394.107 C 344.914 396.524 340.738 398.494 337.579 400.394 C 231.436 464.253 92.1704 383.665 89.4602 261.42 C 88.5086 218.499 103.362 174.029 133.339 142.734 C 138.632 147.851 142.969 154.129 147.852 159.658 L 221.382 249.824 C 238.875 271.573 255.903 293.666 273.161 315.598 C 274.529 312.317 275.598 308.908 277.25 305.756 L 288.088 305.756 C 286.496 311.293 283.358 316.366 281.431 321.806 C 285.141 325.603 288.701 329.899 292.746 333.32 C 292.821 339.453 292.759 345.594 292.746 351.728 L 303.282 351.728 C 303.28 348.685 303.201 345.622 303.282 342.582 C 314.882 352.186 324.852 364.778 334.021 376.658 L 347.66 394.107 Z" stroke-linecap="round" />
</g>
		<g transform="matrix(4.25 0 0 4.25 -471.52 308.09)"  >
<path style="stroke: none; stroke-width: 1; stroke-dasharray: none; stroke-linecap: butt; stroke-dashoffset: 0; stroke-linejoin: miter; stroke-miterlimit: 4; fill: rgb(254,254,254); fill-rule: nonzero; opacity: 1;" vector-effect="non-scaling-stroke"  transform=" translate(-145.19, -328.42)" d="M 127.716 305.756 C 139.36 305.758 151.024 305.59 162.666 305.756 L 162.666 314.305 L 149.762 314.305 L 149.762 338.776 L 149.762 351.155 L 139.247 351.155 L 139.247 314.305 L 127.716 314.305 L 127.716 305.756 Z" stroke-linecap="round" />
</g>
		<g transform="matrix(4.25 0 0 4.25 -314.08 308.24)"  >
<path style="stroke: none; stroke-width: 1; stroke-dasharray: none; stroke-linecap: butt; stroke-dashoffset: 0; stroke-linejoin: miter; stroke-miterlimit: 4; fill: rgb(254,254,254); fill-rule: nonzero; opacity: 1;" vector-effect="non-scaling-stroke"  transform=" translate(-182.26, -328.46)" d="M 166.762 305.756 L 197.752 305.756 C 197.565 308.633 197.587 311.429 197.752 314.305 L 177.733 314.305 L 177.733 323.137 L 196.225 323.137 L 196.225 332.461 C 190.063 332.472 183.766 331.936 177.916 331.953 L 177.733 332.461 L 177.733 341.896 C 184.405 341.906 191.081 341.799 197.752 341.896 L 197.752 351.155 C 194.314 350.986 190.811 351.132 187.366 351.14 L 166.762 351.155 L 166.762 305.756 Z" stroke-linecap="round" />
</g>
		<g transform="matrix(4.25 0 0 4.25 -51.82 309.46)"  >
<path style="stroke: none; stroke-width: 1; stroke-dasharray: none; stroke-linecap: butt; stroke-dashoffset: 0; stroke-linejoin: miter; stroke-miterlimit: 4; fill: rgb(254,254,254); fill-rule: nonzero; opacity: 1;" vector-effect="non-scaling-stroke"  transform=" translate(-243.98, -328.74)" d="M 277.25 305.756 L 288.088 305.756 C 286.496 311.293 283.358 316.366 281.431 321.806 C 277.577 331.821 273.359 341.675 269.581 351.728 L 260.758 351.728 C 253.786 337.824 248.295 320.455 241.664 305.756 C 238.182 312.817 232.273 320.534 227.898 327.283 C 232.121 334.931 238.621 343.484 243.38 351.155 C 239.28 350.915 235.105 351.123 230.995 351.155 C 228.326 345.84 224.654 340.673 221.543 335.574 C 218.674 340.851 215.159 345.743 212.53 351.155 L 199.879 351.155 C 204.699 343.032 210.315 335.258 215.399 327.283 C 211.167 319.819 205.725 313.089 201.32 305.756 L 213.537 305.756 C 216.364 310.191 219.188 314.669 222.371 318.859 C 224.851 314.278 227.49 309.629 230.995 305.756 L 253.279 305.756 C 255.265 312.831 262.034 330.651 265.465 337.186 C 267.934 329.952 270.489 322.759 273.161 315.598 C 274.529 312.317 275.598 308.908 277.25 305.756 Z" stroke-linecap="round" />
</g>
		<g transform="matrix(4.25 0 0 4.25 77.47 -51.12)"  >
<path style="stroke: none; stroke-width: 1; stroke-dasharray: none; stroke-linecap: butt; stroke-dashoffset: 0; stroke-linejoin: miter; stroke-miterlimit: 4; fill: rgb(245,162,1); fill-rule: nonzero; opacity: 1;" vector-effect="non-scaling-stroke"  transform=" translate(-274.38, -243.8)" d="M 147.852 159.658 C 202.191 102.054 290.743 92.5661 351.552 147.223 C 353.386 148.872 357.601 152.058 358.789 154.031 L 380.989 154.031 C 377.927 159.935 375.054 165.925 372.035 171.848 C 376.321 172.26 381.781 184.784 383.617 188.271 C 397.251 214.17 403.285 243.849 400.04 272.993 C 399.203 280.517 394.872 301.777 390.969 307.505 L 390.482 307.786 L 390.08 307.439 L 389.994 305.756 L 369.245 305.742 C 365.774 305.736 362.251 305.537 358.789 305.756 L 358.789 351.155 C 361.986 351.696 362.1 352.014 359.385 355.15 C 351.955 363.731 342.491 369.397 334.021 376.658 C 324.852 364.778 314.882 352.186 303.282 342.582 C 303.201 345.622 303.28 348.685 303.282 351.728 L 292.746 351.728 C 292.759 345.594 292.821 339.453 292.746 333.32 C 288.701 329.899 285.141 325.603 281.431 321.806 C 283.358 316.366 286.496 311.293 288.088 305.756 L 277.25 305.756 C 275.598 308.908 274.529 312.317 273.161 315.598 C 255.903 293.666 238.875 271.573 221.382 249.824 L 147.852 159.658 Z M 216.932 178.079 C 223.009 189.724 228.643 201.602 234.357 213.428 L 260.811 268.151 C 262.918 272.56 264.809 277.41 267.816 281.288 C 277.376 293.619 296.609 296.157 310.009 289.145 C 324.122 281.76 333.139 253.427 340.118 238.574 L 363.045 190.642 C 366.005 184.417 369.36 178.188 372.035 171.848 C 375.054 165.925 377.927 159.935 380.989 154.031 L 358.789 154.031 C 356.334 154.032 353.875 154.062 351.42 154.031 C 348.971 162.485 344.26 170.738 340.502 178.693 L 306.765 252.3 C 303.727 258.888 300.967 270.362 293.4 272.042 C 287.571 268.581 285.585 261.158 282.715 255.421 L 247.694 183.796 C 242.907 174.08 237.515 164.176 233.682 154.031 L 188.516 154.018 C 183.077 154.017 172.784 153.473 167.749 154.349 C 156.172 156.364 157.461 175.699 168.699 177.718 C 179.657 179.687 204.749 177.883 216.932 178.079 Z M 307.976 154.031 C 305.677 160.515 302.902 166.766 300.193 173.085 L 293.4 189.083 C 289.715 182.983 279.363 160.933 277.25 154.031 C 268.539 154.022 259.807 153.881 251.099 154.031 C 250.488 154.11 250.049 154.156 249.481 154.421 C 260.13 179.359 273.811 203.968 285.235 228.841 C 287.95 234.751 291.08 240.396 293.4 246.491 C 296.006 243.162 298.699 236.218 300.647 232.074 L 317.622 195.436 C 323.502 183.135 331.541 166.569 335.869 154.031 C 326.593 154.278 317.258 154.024 307.976 154.031 Z M 312.344 305.756 L 312.344 350.757 C 323.254 350.937 336.37 352.977 345.035 344.841 C 353.131 335.217 354.227 318.919 343.831 310.353 C 338.015 305.561 330.725 305.739 323.591 305.738 L 312.344 305.756 Z M 292.746 305.756 C 292.731 314.936 292.93 324.143 292.746 333.32 C 292.821 339.453 292.759 345.594 292.746 351.728 L 303.282 351.728 C 303.28 348.685 303.201 345.622 303.282 342.582 L 303.282 305.756 L 292.746 305.756 Z" stroke-linecap="round" />
</g>
		<g transform="matrix(4.25 0 0 4.25 320.62 307.2)"  >
<path style="stroke: none; stroke-width: 1; stroke-dasharray: none; stroke-linecap: butt; stroke-dashoffset: 0; stroke-linejoin: miter; stroke-miterlimit: 4; fill: rgb(245,162,1); fill-rule: nonzero; opacity: 1;" vector-effect="non-scaling-stroke"  transform=" translate(-331.68, -328.21)" d="M 322.476 314.305 C 327.191 314.23 332.766 314.014 336.697 317.087 C 342.753 321.821 341.601 333.394 337.272 338.776 C 333.044 342.691 327.833 342.343 322.476 341.896 L 322.476 314.305 Z" stroke-linecap="round" />
</g>
</g>
</g>
<g transform="matrix(0 0 0 0 0 0)"  >
<g style=""   >
</g>
</g>
<g transform="matrix(0 0 0 0 0 0)"  >
<g style=""   >
</g>
</g>
<g transform="matrix(0 0 0 0 0 0)"  >
<g style=""   >
</g>
</g>
<g transform="matrix(0 0 0 0 0 0)"  >
<g style=""   >
</g>
</g>
</svg>